<svg width="163" height="31" fill="none" xmlns="http://www.w3.org/2000/svg"><path d="M118.872 11.423c.219.54-.194 1.09-.774 1.153l-1.403.154c-.486.053-.927-.268-1.202-.672a2.45 2.45 0 00-1.06-.897c-.389-.181-.865-.272-1.429-.272-.758 0-1.395.165-1.912.493-.51.33-.761.755-.755 1.279-.006.449.158.815.493 1.096.343.282.906.514 1.691.695l2.637.563c1.462.316 2.549.816 3.26 1.5.718.684 1.081 1.58 1.087 2.687-.006.973-.292 1.831-.855 2.576-.557.738-1.332 1.315-2.325 1.731-.993.416-2.133.624-3.421.624-1.892 0-3.415-.396-4.569-1.188-.86-.595-1.461-1.363-1.803-2.304-.197-.541.222-1.073.795-1.128l1.624-.157c.5-.048.935.298 1.187.732.18.309.417.564.713.764.523.356 1.204.534 2.042.534.866 0 1.56-.178 2.084-.534.53-.355.795-.795.795-1.318 0-.443-.171-.808-.514-1.097-.335-.289-.858-.51-1.57-.664l-2.636-.554c-1.483-.308-2.58-.828-3.291-1.56-.711-.738-1.063-1.67-1.057-2.797-.006-.953.252-1.778.775-2.476.53-.704 1.265-1.248 2.204-1.63.946-.39 2.036-.584 3.271-.584 1.811 0 3.237.386 4.277 1.157a4.793 4.793 0 011.641 2.094zm4.637 18.205a1 1 0 01-1-1V9.373a1 1 0 011-1h1.583a1 1 0 011 1V10.8c0 .072.058.13.13.13.05 0 .095-.027.118-.071.185-.355.438-.73.758-1.126.342-.43.805-.795 1.389-1.097.584-.309 1.328-.463 2.234-.463 1.194 0 2.271.305 3.231.916.966.604 1.73 1.5 2.294 2.687.57 1.18.855 2.63.855 4.347 0 1.698-.278 3.14-.835 4.328-.557 1.187-1.315 2.093-2.274 2.717-.96.624-2.046.936-3.261.936-.885 0-1.62-.148-2.204-.443-.583-.295-1.053-.65-1.409-1.067a7.013 7.013 0 01-.788-1.147.096.096 0 00-.084-.05.094.094 0 00-.094.093v7.139a1 1 0 01-1 1h-1.643zm2.573-13.526c0 1 .141 1.875.422 2.627.289.751.702 1.338 1.238 1.761.544.416 1.201.624 1.973.624.805 0 1.479-.215 2.023-.644.543-.436.952-1.03 1.227-1.781.282-.759.423-1.62.423-2.587 0-.96-.138-1.811-.413-2.556-.275-.745-.684-1.328-1.227-1.751-.544-.423-1.221-.634-2.033-.634-.779 0-1.439.205-1.983.614-.543.41-.956.983-1.238 1.72-.275.739-.412 1.608-.412 2.607zM142.864 3.22a1 1 0 011 1v18.611a1 1 0 01-1 1h-1.643a1 1 0 01-1-1V4.221a1 1 0 011-1h1.643zm5.746 20.611a1 1 0 01-1-1V9.373a1 1 0 011-1h1.643a1 1 0 011 1v13.458a1 1 0 01-1 1h-1.643zm.832-17.651a2.127 2.127 0 01-1.49-.574c-.415-.39-.623-.855-.623-1.399 0-.55.208-1.016.623-1.399a2.106 2.106 0 011.49-.583c.584 0 1.08.194 1.489.583.416.383.624.849.624 1.4 0 .543-.208 1.009-.624 1.398a2.1 2.1 0 01-1.489.574zm12.276 2.193a1 1 0 011 1v.818a1 1 0 01-1 1h-6.886a1 1 0 01-1-1v-.818a1 1 0 011-1h6.886zm-5.692-2.703a1 1 0 011-1h1.643a1 1 0 011 1v13.512c0 .49.074.865.221 1.127.155.255.356.43.604.523.248.094.524.141.825.141.229 0 .437-.017.624-.05a.467.467 0 01.538.351l.337 1.561c.104.482-.172.96-.653 1.066a6.772 6.772 0 01-1.308.141c-.913.027-1.735-.11-2.466-.412a3.835 3.835 0 01-1.741-1.43c-.423-.643-.631-1.448-.624-2.415V5.67zM12.6 11.422c.22.54-.194 1.091-.773 1.154l-1.404.153c-.486.053-.926-.267-1.201-.672a2.448 2.448 0 00-1.06-.896c-.39-.181-.866-.272-1.43-.272-.758 0-1.395.164-1.911.493-.51.329-.762.755-.755 1.278-.007.45.157.815.493 1.097.342.282.906.513 1.69.695l2.637.563c1.463.315 2.55.815 3.26 1.5.719.684 1.081 1.58 1.088 2.687-.007.972-.292 1.831-.856 2.576-.557.738-1.332 1.315-2.324 1.73-.993.417-2.134.625-3.422.625-1.892 0-3.415-.396-4.569-1.188C1.203 22.35.602 21.582.26 20.64c-.196-.54.223-1.072.795-1.128l1.624-.156c.5-.048.935.298 1.188.731.18.31.417.564.712.765.523.356 1.204.533 2.043.533.865 0 1.56-.177 2.083-.533.53-.356.795-.795.795-1.318 0-.443-.171-.809-.513-1.097-.336-.289-.859-.51-1.57-.665L4.78 17.22c-1.482-.309-2.58-.829-3.29-1.56-.712-.738-1.064-1.67-1.057-2.798-.007-.952.251-1.777.775-2.475.53-.705 1.264-1.248 2.204-1.63.946-.39 2.036-.584 3.27-.584 1.812 0 3.237.386 4.277 1.157a4.8 4.8 0 011.642 2.093zm10.38 12.711c-1.543 0-2.868-.34-3.975-1.017-1.1-.677-1.949-1.613-2.546-2.807-.59-1.201-.886-2.583-.886-4.147 0-1.57.302-2.955.906-4.156.604-1.207 1.456-2.147 2.556-2.818 1.107-.677 2.416-1.016 3.925-1.016 1.255 0 2.365.231 3.331.694.973.456 1.748 1.104 2.325 1.943a5.47 5.47 0 01.824 1.857c.136.564-.332 1.061-.913 1.061H26.95c-.48 0-.877-.35-1.072-.79a3.265 3.265 0 00-.763-1.072c-.524-.503-1.225-.755-2.104-.755-.744 0-1.398.202-1.962.604-.563.396-1.003.966-1.318 1.711-.309.745-.463 1.637-.463 2.677 0 1.053.154 1.959.463 2.717.308.752.741 1.332 1.298 1.741.564.403 1.224.604 1.983.604a3.3 3.3 0 001.439-.302 2.883 2.883 0 001.076-.896c.141-.19.26-.4.358-.629.187-.441.582-.79 1.062-.79h1.573c.584 0 1.052.502.914 1.069a5.828 5.828 0 01-.797 1.84c-.557.838-1.315 1.496-2.274 1.972-.96.47-2.087.705-3.382.705zm14.062.01c-.98 0-1.862-.175-2.647-.524a4.32 4.32 0 01-1.852-1.57c-.45-.69-.674-1.543-.674-2.556 0-.872.161-1.593.483-2.163a3.74 3.74 0 011.318-1.369 6.649 6.649 0 011.882-.775 15.311 15.311 0 012.184-.392c.906-.094 1.64-.178 2.204-.252.564-.08.973-.201 1.228-.362.261-.168.392-.426.392-.775v-.06c0-.759-.225-1.346-.674-1.762-.45-.415-1.097-.623-1.942-.623-.893 0-1.6.194-2.124.583a3.285 3.285 0 00-.66.651c-.288.384-.73.68-1.206.611l-1.446-.205c-.6-.085-.995-.688-.722-1.23.243-.483.548-.912.914-1.286a5.778 5.778 0 012.265-1.43c.892-.321 1.878-.482 2.958-.482.745 0 1.487.087 2.225.262a6.258 6.258 0 012.022.865c.61.396 1.1.936 1.47 1.62.375.685.563 1.54.563 2.566v9.346a1 1 0 01-1 1h-1.502a1 1 0 01-1-1v-1.049a.075.075 0 00-.142-.034c-.22.414-.525.803-.915 1.167-.395.369-.895.668-1.5.896-.596.221-1.297.332-2.102.332zm.946-2.677c.73 0 1.365-.144 1.902-.433a3.2 3.2 0 001.237-1.167c.296-.483.443-1.01.443-1.58v-1.178c0-.257-.337-.454-.583-.382-.269.08-.57.15-.906.211-.336.06-.668.114-.997.161-.328.047-.613.088-.855.121a6.363 6.363 0 00-1.46.362c-.428.168-.767.403-1.015.705-.249.295-.373.677-.373 1.147 0 .67.245 1.177.735 1.52.49.342 1.114.513 1.872.513zm14.522-6.692v8.057a1 1 0 01-1 1h-1.644a1 1 0 01-1-1V9.373a1 1 0 011-1h1.482a1 1 0 011 1v1.518c0 .06.049.109.109.109a.11.11 0 00.1-.067c.358-.834.915-1.5 1.673-1.996.785-.51 1.755-.765 2.909-.765 1.066 0 1.996.228 2.787.684.799.456 1.416 1.117 1.852 1.983.443.865.66 1.915.654 3.15v8.842a1 1 0 01-1 1H59.79a1 1 0 01-1-1v-8.279c0-1.033-.268-1.841-.805-2.425-.53-.584-1.265-.876-2.204-.876-.637 0-1.204.141-1.7.423a2.93 2.93 0 00-1.158 1.198c-.275.523-.413 1.157-.413 1.902z" fill="#090E1C"/><path d="M97.276 0a2 2 0 011.973 2.328l-4.468 26.915a2 2 0 01-1.973 1.672h-2.74a2 2 0 01-1.772-1.072l-9.581-18.296a.166.166 0 00-.312.05L75.46 29.243a2 2 0 01-1.973 1.671h-2.483a2 2 0 01-1.973-2.327l4.468-26.916A2 2 0 0175.472 0h2.829a2 2 0 011.773 1.075l9.534 18.273a.176.176 0 00.33-.053l2.915-17.621A2 2 0 0194.826 0h2.45z" fill="#17C653"/></svg>