<svg width="226" height="43" fill="none" xmlns="http://www.w3.org/2000/svg"><path d="M164.946 16.23c.187.552-.223 1.1-.803 1.162l-2.687.294c-.486.052-.928-.263-1.168-.69a3.96 3.96 0 00-.358-.53c-.316-.41-.744-.74-1.284-.99-.539-.252-1.2-.378-1.981-.378-1.051 0-1.935.228-2.651.684-.707.456-1.056 1.047-1.047 1.772-.009.623.219 1.13.684 1.521.474.39 1.256.712 2.344.963l3.656.781c2.028.437 3.535 1.13 4.521 2.08.995.948 1.497 2.19 1.507 3.725-.01 1.349-.405 2.54-1.187 3.572-.772 1.023-1.846 1.823-3.223 2.4-1.376.576-2.958.865-4.744.865-2.623 0-4.735-.549-6.335-1.647-1.308-.905-2.184-2.1-2.628-3.584-.165-.552.251-1.08.823-1.136l2.997-.289c.5-.048.943.29 1.153.746a3.26 3.26 0 001.144 1.361c.725.493 1.669.74 2.832.74 1.2 0 2.163-.247 2.889-.74.734-.493 1.102-1.102 1.102-1.828a1.9 1.9 0 00-.712-1.52c-.465-.4-1.19-.708-2.176-.922l-3.656-.767c-2.056-.428-3.577-1.149-4.563-2.163-.986-1.023-1.474-2.316-1.465-3.879-.009-1.32.349-2.465 1.074-3.432.735-.977 1.754-1.73 3.056-2.26 1.312-.54 2.823-.81 4.535-.81 2.512 0 4.488.535 5.93 1.605 1.162.856 1.969 1.954 2.421 3.294zm5.898 24.85a1 1 0 01-1-1V12.61a1 1 0 011-1h2.967a1 1 0 011 1v2.363c0 .1.081.181.181.181a.184.184 0 00.163-.1 9.502 9.502 0 011.051-1.56c.475-.596 1.116-1.102 1.926-1.521.809-.428 1.842-.642 3.097-.642 1.656 0 3.149.423 4.479 1.27 1.34.837 2.4 2.079 3.182 3.725.79 1.637 1.186 3.647 1.186 6.028 0 2.354-.386 4.354-1.158 6-.772 1.646-1.824 2.902-3.154 3.767-1.33.865-2.837 1.298-4.521 1.298-1.228 0-2.246-.205-3.055-.614-.81-.41-1.461-.902-1.954-1.479a9.76 9.76 0 01-1.093-1.59.13.13 0 00-.246.06v10.283a1 1 0 01-1 1h-3.051zm3.953-18.754c0 1.386.195 2.6.586 3.642.4 1.042.972 1.856 1.716 2.442.754.576 1.665.865 2.735.865 1.116 0 2.051-.298 2.805-.893.753-.605 1.321-1.428 1.702-2.47.391-1.051.586-2.246.586-3.586 0-1.33-.191-2.511-.572-3.544-.381-1.032-.949-1.842-1.702-2.428-.754-.586-1.693-.879-2.819-.879-1.079 0-1.995.284-2.749.851-.753.568-1.325 1.363-1.716 2.386-.381 1.023-.572 2.228-.572 3.614zm23.655-17.86a1 1 0 011 1v26.576a1 1 0 01-1 1h-3.051a1 1 0 01-1-1V5.466a1 1 0 011-1h3.051zm7.194 28.576a1 1 0 01-1-1V12.61a1 1 0 011-1h3.051a1 1 0 011 1v19.432a1 1 0 01-1 1h-3.051zm1.54-24.474c-.8 0-1.489-.265-2.065-.795-.577-.54-.865-1.186-.865-1.94 0-.762.288-1.409.865-1.939a2.917 2.917 0 012.065-.81c.809 0 1.497.27 2.065.81.577.53.865 1.177.865 1.94 0 .753-.288 1.4-.865 1.939-.568.53-1.256.795-2.065.795zm17.408 3.042a1 1 0 011 1v1.907a1 1 0 01-1 1h-10.321a1 1 0 01-1-1V12.61a1 1 0 011-1h10.321zm-8.279-4.135a1 1 0 011-1h3.051a1 1 0 011 1v19.12c0 .68.102 1.2.307 1.564.214.353.493.595.837.725s.726.195 1.144.195c.316 0 .605-.023.865-.07a.65.65 0 01.746.488l.532 2.469c.107.495-.175.987-.667 1.104l-.304.07c-.493.111-1.097.177-1.814.195-1.265.037-2.404-.153-3.418-.572a5.316 5.316 0 01-2.414-1.981c-.586-.893-.875-2.01-.865-3.349V7.475zM17.6 16.228c.187.553-.223 1.1-.803 1.163l-2.687.293c-.486.053-.928-.262-1.167-.689a4.024 4.024 0 00-.359-.53c-.316-.41-.744-.74-1.284-.991s-1.2-.377-1.981-.377c-1.051 0-1.935.228-2.651.684-.707.456-1.056 1.046-1.047 1.772-.009.623.219 1.13.684 1.521.474.39 1.256.712 2.344.963l3.656.781c2.028.437 3.535 1.13 4.52 2.08.996.948 1.498 2.19 1.508 3.725-.01 1.348-.405 2.54-1.186 3.572-.772 1.023-1.847 1.823-3.223 2.4-1.377.576-2.959.865-4.745.865-2.623 0-4.734-.55-6.334-1.647-1.31-.905-2.185-2.1-2.629-3.584-.165-.552.25-1.08.824-1.136l2.997-.289c.5-.048.942.29 1.152.746a3.27 3.27 0 001.144 1.361c.725.493 1.67.74 2.832.74 1.2 0 2.163-.247 2.889-.74.735-.493 1.102-1.102 1.102-1.828a1.9 1.9 0 00-.712-1.52c-.465-.4-1.19-.708-2.176-.922l-3.656-.767c-2.056-.428-3.577-1.149-4.563-2.163-.986-1.023-1.474-2.316-1.465-3.879-.01-1.32.349-2.465 1.075-3.432.734-.977 1.753-1.73 3.055-2.26 1.312-.54 2.824-.81 4.535-.81 2.512 0 4.488.535 5.93 1.605 1.162.856 1.97 1.954 2.421 3.293zM31.846 33.46c-2.14 0-3.976-.47-5.511-1.41-1.526-.94-2.702-2.237-3.53-3.892-.819-1.666-1.228-3.582-1.228-5.75 0-2.176.418-4.097 1.256-5.762.837-1.674 2.018-2.977 3.544-3.907 1.535-.94 3.349-1.41 5.441-1.41 1.74 0 3.28.322 4.619.964 1.349.632 2.423 1.53 3.223 2.693a7.67 7.67 0 011.23 2.98c.108.571-.357 1.066-.937 1.066h-2.925c-.48 0-.881-.347-1.045-.799a4.526 4.526 0 00-1.179-1.782c-.725-.698-1.697-1.047-2.916-1.047-1.032 0-1.94.28-2.72.837-.782.55-1.391 1.34-1.828 2.372-.428 1.033-.642 2.27-.642 3.712 0 1.46.214 2.716.642 3.767.427 1.042 1.027 1.847 1.8 2.414.78.558 1.697.837 2.748.837.744 0 1.41-.139 1.995-.418a4.012 4.012 0 001.493-1.242 4.36 4.36 0 00.611-1.17c.158-.453.56-.797 1.038-.797h2.92c.583 0 1.049.5.937 1.072a8.156 8.156 0 01-1.194 2.96c-.772 1.163-1.823 2.075-3.153 2.735-1.33.651-2.893.977-4.689.977zm19.497.014c-1.359 0-2.582-.242-3.67-.726a5.988 5.988 0 01-2.568-2.177c-.623-.958-.934-2.14-.934-3.544 0-1.209.223-2.209.67-3a5.184 5.184 0 011.827-1.897 9.22 9.22 0 012.61-1.075 21.238 21.238 0 013.027-.544 119.29 119.29 0 003.056-.349c.781-.111 1.349-.279 1.702-.502.363-.233.544-.59.544-1.074v-.084c0-1.051-.311-1.865-.934-2.442-.624-.577-1.521-.865-2.693-.865-1.238 0-2.219.27-2.944.81a4.373 4.373 0 00-1.096 1.166c-.255.407-.7.696-1.175.628l-2.76-.392c-.601-.085-.994-.685-.752-1.241a7.196 7.196 0 011.457-2.185c.856-.884 1.902-1.544 3.14-1.981 1.237-.447 2.604-.67 4.102-.67 1.032 0 2.06.12 3.083.363a8.678 8.678 0 012.805 1.2c.846.548 1.525 1.297 2.037 2.246.521.949.781 2.135.781 3.558v13.344a1 1 0 01-1 1h-2.855a1 1 0 01-1-1v-1.84a.104.104 0 00-.197-.048 6.203 6.203 0 01-1.268 1.618c-.55.512-1.242.926-2.08 1.242-.827.307-1.8.46-2.916.46zm1.311-3.712c1.014 0 1.893-.2 2.637-.6.744-.41 1.317-.949 1.717-1.618.409-.67.613-1.4.613-2.191v-1.634c0-.355-.467-.629-.809-.529-.372.112-.79.21-1.256.293-.465.084-.925.158-1.381.223-.456.066-.851.121-1.186.168a8.818 8.818 0 00-2.023.502c-.596.233-1.065.558-1.41.977-.344.41-.516.94-.516 1.59 0 .93.34 1.633 1.019 2.107.679.475 1.544.712 2.595.712zm20.135-9.279v11.558a1 1 0 01-1 1h-3.052a1 1 0 01-1-1V12.61a1 1 0 011-1h2.828a1 1 0 011 1v2.49c0 .084.068.15.15.15a.152.152 0 00.14-.092 6.117 6.117 0 012.32-2.768c1.088-.707 2.432-1.06 4.032-1.06 1.48 0 2.767.316 3.865.949 1.107.632 1.963 1.549 2.567 2.748.614 1.2.917 2.656.907 4.368V32.04a1 1 0 01-1 1h-3.05a1 1 0 01-1-1V20.176c0-1.432-.373-2.553-1.117-3.362-.735-.81-1.753-1.214-3.056-1.214-.883 0-1.67.195-2.358.586a4.052 4.052 0 00-1.604 1.66c-.382.726-.572 1.605-.572 2.637zM135.77 0a2 2 0 011.973 2.328l-6.452 38.864a2 2 0 01-1.973 1.672h-4.922a2 2 0 01-1.772-1.072L109.122 16.01a.23.23 0 00-.431.069l-4.189 25.115a2 2 0 01-1.973 1.671h-5.01a2 2 0 01-1.972-2.327l6.452-38.865A2 2 0 01103.972 0h5.045a2 2 0 011.773 1.075l13.436 25.751a.245.245 0 00.458-.073l4.148-25.08A1.999 1.999 0 01130.805 0h4.965z" fill="#fff"/></svg>