<svg width="48" height="48" fill="none" xmlns="http://www.w3.org/2000/svg"><path d="M24 48c13.255 0 24-10.745 24-24S37.255 0 24 0 0 10.745 0 24s10.745 24 24 24z" fill="url(#paint0_linear_23050_1991)"/><path d="M19.6 35c-.777 0-.645-.294-.914-1.034L16.4 26.441 34 16" fill="#C8DAEA"/><path d="M19.6 35.001c.6 0 .865-.274 1.2-.6L24 31.29l-3.991-2.407" fill="#A9C9DD"/><path d="M20.009 28.883l9.67 7.146c1.105.61 1.901.294 2.176-1.025l3.937-18.552c.403-1.616-.616-2.35-1.672-1.87l-23.118 8.915c-1.578.632-1.569 1.513-.287 1.905l5.932 1.852 13.735-8.665c.648-.393 1.243-.182.755.252" fill="url(#paint1_linear_23050_1991)"/><defs><linearGradient id="paint0_linear_23050_1991" x1="18.002" y1="2.002" x2="6.002" y2="30" gradientUnits="userSpaceOnUse"><stop stop-color="#37AEE2"/><stop offset="1" stop-color="#1E96C8"/></linearGradient><linearGradient id="paint1_linear_23050_1991" x1="20.995" y1="25.476" x2="23.559" y2="33.771" gradientUnits="userSpaceOnUse"><stop stop-color="#EFF7FC"/><stop offset="1" stop-color="#fff"/></linearGradient></defs></svg>