<svg width="155" height="37" fill="none" xmlns="http://www.w3.org/2000/svg"><path d="M50.26 5.181c0 1.086-.333 1.955-.988 2.604-.755.768-1.736 1.155-2.94 1.155-1.15 0-2.132-.393-2.938-1.168-.807-.787-1.21-1.752-1.21-2.907 0-1.156.403-2.121 1.21-2.901.806-.782 1.788-1.175 2.938-1.175a4.27 4.27 0 011.64.33c.519.216.942.509 1.248.87l-.696.685c-.534-.616-1.261-.92-2.192-.92a3.09 3.09 0 00-2.184.863c-.61.579-.917 1.328-.917 2.248 0 .92.307 1.675.917 2.253.618.57 1.345.863 2.184.863.89 0 1.64-.292 2.23-.87.39-.38.611-.907.67-1.58h-2.9v-.94H50.2c.047.204.06.4.06.59zm6.137-3.256h-3.634v2.47h3.276v.94h-3.276v2.47h3.634v.956h-4.662V.968h4.662v.957zm4.33 6.836H59.7V1.925h-2.23V.968h5.488v.957h-2.23V8.76zm6.202 0V.968h1.027V8.76h-1.027zm5.579 0h-1.02V1.925H69.25V.968h5.494v.957h-2.237V8.76zm12.626-1.002c-.787.788-1.763 1.181-2.926 1.181-1.17 0-2.146-.393-2.933-1.181-.785-.787-1.177-1.752-1.177-2.894 0-1.143.392-2.108 1.177-2.895.787-.788 1.763-1.18 2.933-1.18 1.157 0 2.132.392 2.92 1.187.791.793 1.183 1.752 1.183 2.888 0 1.142-.392 2.107-1.177 2.894zm-5.098-.654c.592.584 1.313.876 2.172.876.852 0 1.58-.292 2.165-.876.591-.583.89-1.332.89-2.24 0-.909-.299-1.658-.89-2.241-.586-.584-1.313-.876-2.165-.876-.859 0-1.58.292-2.172.876-.591.583-.89 1.332-.89 2.24 0 .909.299 1.658.89 2.241zm7.718 1.656V.968h1.248l3.881 6.061h.045l-.045-1.498V.968h1.027V8.76h-1.072L88.774 2.4h-.045l.045 1.505V8.76h-1.02zm-9.909 11.382c-3.127 0-5.682 2.324-5.682 5.53 0 3.18 2.555 5.528 5.682 5.528 3.134 0 5.69-2.348 5.69-5.528 0-3.206-2.556-5.53-5.69-5.53zm0 8.88c-1.716 0-3.192-1.382-3.192-3.35 0-1.994 1.476-3.353 3.192-3.353 1.716 0 3.2 1.359 3.2 3.353 0 1.968-1.484 3.35-3.2 3.35zm-12.397-8.88c-3.134 0-5.683 2.324-5.683 5.53 0 3.18 2.548 5.528 5.683 5.528 3.132 0 5.682-2.348 5.682-5.528 0-3.206-2.55-5.53-5.682-5.53zm0 8.88c-1.718 0-3.2-1.382-3.2-3.35 0-1.994 1.482-3.353 3.2-3.353 1.716 0 3.192 1.359 3.192 3.353 0 1.968-1.477 3.35-3.192 3.35zm-14.753-7.185v2.35h5.747c-.169 1.313-.618 2.278-1.307 2.95-.839.813-2.145 1.715-4.44 1.715-3.537 0-6.307-2.787-6.307-6.24 0-3.453 2.77-6.24 6.306-6.24 1.913 0 3.304.73 4.331 1.675l1.696-1.656c-1.436-1.339-3.347-2.367-6.026-2.367-4.85 0-8.927 3.853-8.927 8.588 0 4.735 4.076 8.588 8.926 8.588 2.622 0 4.59-.838 6.139-2.412 1.586-1.548 2.08-3.726 2.08-5.484a7.61 7.61 0 00-.13-1.467h-8.089zm60.326 1.821c-.467-1.236-1.91-3.516-4.85-3.516-2.912 0-5.337 2.24-5.337 5.53 0 3.097 2.4 5.528 5.617 5.528a5.645 5.645 0 004.72-2.45l-1.93-1.257c-.645.92-1.522 1.53-2.79 1.53-1.26 0-2.164-.564-2.743-1.676l7.575-3.06-.262-.629zm-7.722 1.841a3.067 3.067 0 012.957-3.224c.989 0 1.828.483 2.107 1.174l-5.064 2.05zm-6.157 5.365h2.49v-16.25h-2.49v16.25zm-4.078-9.49h-.083c-.559-.647-1.626-1.232-2.977-1.232-2.836 0-5.43 2.43-5.43 5.548 0 3.099 2.594 5.51 5.43 5.51 1.351 0 2.418-.59 2.977-1.256h.084v.793c0 2.114-1.157 3.25-3.023 3.25-1.521 0-2.465-1.073-2.854-1.974l-2.166.882c.624 1.466 2.277 3.27 5.02 3.27 2.92 0 5.383-1.678 5.383-5.758v-9.929h-2.36v.896zm-2.847 7.648c-1.716 0-3.153-1.402-3.153-3.332 0-1.949 1.437-3.37 3.153-3.37 1.69 0 3.024 1.421 3.024 3.37 0 1.93-1.333 3.332-3.024 3.332zm32.462-14.408h-5.955v16.25h2.483v-6.157h3.472c2.758 0 5.462-1.949 5.462-5.048 0-3.097-2.711-5.045-5.462-5.045zm.065 7.832h-3.537v-5.572h3.537a2.853 2.853 0 012.912 2.785c0 1.258-1.058 2.787-2.912 2.787zm15.35-2.335c-1.794 0-3.66.774-4.427 2.488l2.204.902c.474-.902 1.346-1.195 2.268-1.195 1.288 0 2.595.756 2.615 2.09v.17c-.45-.253-1.412-.628-2.595-.628-2.373 0-4.792 1.276-4.792 3.656 0 2.178 1.944 3.58 4.13 3.58 1.671 0 2.593-.736 3.172-1.593h.085v1.257h2.398v-6.234c0-2.881-2.203-4.493-5.058-4.493zm-.299 8.905c-.813 0-1.944-.393-1.944-1.376 0-1.258 1.411-1.74 2.633-1.74 1.093 0 1.606.235 2.27.545-.195 1.505-1.521 2.571-2.959 2.571zm14.095-8.55l-2.854 7.045h-.085L146 20.468h-2.678l4.434 9.844-2.53 5.478h2.595l6.832-15.322h-2.763zm-22.384 10.398h2.49v-16.25h-2.49v16.25z" fill="#fff"/><path d="M1.018 1.665C.627 2.065.4 2.687.4 3.493v28.75c0 .806.227 1.428.618 1.828l.096.087 16.501-16.103v-.38L1.115 1.57l-.097.094z" fill="url(#paint0_linear_23036_1844)"/><path d="M23.11 23.425l-5.495-5.37v-.38l5.5-5.371.124.07 6.514 3.618c1.86 1.027 1.86 2.717 0 3.751l-6.514 3.612-.13.07z" fill="url(#paint1_linear_23036_1844)"/><path d="M23.239 23.355l-5.624-5.49L1.018 34.07c.617.633 1.624.71 2.77.076l19.45-10.792z" fill="url(#paint2_linear_23036_1844)"/><path d="M23.239 12.374L3.787 1.582c-1.145-.627-2.152-.55-2.77.083l16.598 16.2 5.624-5.491z" fill="url(#paint3_linear_23036_1844)"/><defs><linearGradient id="paint0_linear_23036_1844" x1="141.525" y1="2.544" x2="136" y2="49.258" gradientUnits="userSpaceOnUse"><stop stop-color="#00A0FF"/><stop offset=".007" stop-color="#00A1FF"/><stop offset=".26" stop-color="#00BEFF"/><stop offset=".512" stop-color="#00D2FF"/><stop offset=".76" stop-color="#00DFFF"/><stop offset="1" stop-color="#00E3FF"/></linearGradient><linearGradient id="paint1_linear_23036_1844" x1="166.354" y1="18.483" x2="-200.887" y2="18.483" gradientUnits="userSpaceOnUse"><stop stop-color="#FFE000"/><stop offset=".409" stop-color="#FFBD00"/><stop offset=".775" stop-color="orange"/><stop offset="1" stop-color="#FF9C00"/></linearGradient><linearGradient id="paint2_linear_23036_1844" x1="133.424" y1="42.48" x2="99.204" y2="157.483" gradientUnits="userSpaceOnUse"><stop stop-color="#FF3A44"/><stop offset="1" stop-color="#C31162"/></linearGradient><linearGradient id="paint3_linear_23036_1844" x1="-3.16" y1="43.635" x2="10.047" y2="30.108" gradientUnits="userSpaceOnUse"><stop stop-color="#32A071"/><stop offset=".069" stop-color="#2DA771"/><stop offset=".476" stop-color="#15CF74"/><stop offset=".801" stop-color="#06E775"/><stop offset="1" stop-color="#00F076"/></linearGradient></defs></svg>