<svg width="146" height="39" fill="none" xmlns="http://www.w3.org/2000/svg"><path d="M23.294 18.583c-.038-4.19 3.52-6.228 3.682-6.323-2.015-2.864-5.137-3.255-6.235-3.286-2.622-.27-5.166 1.53-6.502 1.53-1.363 0-3.42-1.504-5.638-1.46-2.853.043-5.523 1.654-6.987 4.155-3.02 5.1-.768 12.594 2.127 16.717 1.448 2.018 3.14 4.273 5.355 4.193 2.166-.087 2.976-1.346 5.59-1.346 2.591 0 3.351 1.346 5.61 1.296 2.325-.037 3.79-2.028 5.187-4.065 1.673-2.314 2.345-4.593 2.372-4.71-.055-.019-4.517-1.679-4.56-6.7zM19.028 6.262c1.165-1.42 1.963-3.354 1.741-5.316-1.686.073-3.796 1.138-5.01 2.527-1.075 1.225-2.035 3.232-1.787 5.12 1.895.138 3.84-.932 5.056-2.331zM54.65 33.82h-3.027l-1.66-5.082H44.2l-1.58 5.081h-2.95l5.712-17.3h3.529l5.74 17.3zm-5.186-7.214l-1.5-4.518c-.159-.461-.456-1.548-.895-3.259h-.053a123.23 123.23 0 01-.843 3.26L44.7 26.605h4.764zm19.876.823c0 2.121-.588 3.798-1.764 5.03-1.053 1.095-2.361 1.642-3.923 1.642-1.685 0-2.896-.59-3.633-1.77h-.053v6.571h-2.843v-13.45c0-1.335-.036-2.703-.105-4.107h2.5l.158 1.977h.053c.949-1.49 2.387-2.233 4.318-2.233 1.51 0 2.77.58 3.777 1.744 1.01 1.165 1.515 2.696 1.515 4.596zm-2.896.101c0-1.214-.28-2.215-.843-3.003-.614-.822-1.44-1.232-2.474-1.232-.702 0-1.34.228-1.909.68a3.142 3.142 0 00-1.118 1.784 3.544 3.544 0 00-.132.845v2.08c0 .908.285 1.674.856 2.299.57.625 1.312.937 2.224.937 1.07 0 1.904-.403 2.5-1.206.597-.805.896-1.866.896-3.184zm17.612-.101c0 2.121-.588 3.798-1.766 5.03-1.052 1.095-2.36 1.642-3.92 1.642-1.686 0-2.897-.59-3.633-1.77h-.053v6.571H71.84v-13.45c0-1.335-.036-2.703-.105-4.107h2.5l.158 1.977h.054c.947-1.49 2.385-2.233 4.317-2.233 1.508 0 2.768.58 3.779 1.744 1.007 1.165 1.512 2.696 1.512 4.596zm-2.896.101c0-1.214-.281-2.215-.844-3.003-.615-.822-1.438-1.232-2.474-1.232-.702 0-1.338.228-1.909.68a3.14 3.14 0 00-1.117 1.784c-.087.344-.132.624-.132.845v2.08c0 .908.285 1.674.853 2.299.57.624 1.312.937 2.227.937 1.07 0 1.904-.403 2.5-1.206.597-.805.896-1.866.896-3.184zm19.349 1.438c0 1.471-.524 2.669-1.576 3.593-1.156 1.01-2.765 1.514-4.833 1.514-1.91 0-3.44-.358-4.599-1.077l.659-2.31c1.248.736 2.617 1.105 4.11 1.105 1.07 0 1.903-.237 2.502-.707.596-.471.893-1.103.893-1.89 0-.703-.245-1.294-.737-1.774-.49-.48-1.307-.925-2.448-1.338-3.107-1.13-4.659-2.784-4.659-4.96 0-1.423.544-2.589 1.633-3.496 1.086-.909 2.534-1.363 4.345-1.363 1.614 0 2.955.275 4.026.822l-.71 2.26c-1-.53-2.131-.796-3.396-.796-1 0-1.782.24-2.342.719-.473.428-.71.949-.71 1.566 0 .684.27 1.25.814 1.694.474.411 1.334.856 2.582 1.335 1.526.6 2.647 1.3 3.369 2.104.718.8 1.077 1.803 1.077 2.999zm9.399-5.543h-3.134v6.056c0 1.54.552 2.31 1.659 2.31.508 0 .929-.043 1.263-.128l.078 2.104c-.56.204-1.297.307-2.21.307-1.123 0-2-.334-2.634-1-.63-.669-.948-1.79-.948-3.364v-6.288h-1.866v-2.08h1.866v-2.284l2.792-.822v3.106h3.134v2.083zm14.137 4.055c0 1.917-.563 3.491-1.685 4.722-1.178 1.268-2.74 1.9-4.688 1.9-1.878 0-3.372-.608-4.487-1.822-1.115-1.214-1.672-2.747-1.672-4.594 0-1.933.573-3.517 1.724-4.748 1.148-1.232 2.697-1.848 4.645-1.848 1.878 0 3.388.607 4.528 1.822 1.091 1.18 1.635 2.702 1.635 4.567zm-2.949.089c0-1.15-.252-2.137-.763-2.96-.596-.996-1.448-1.493-2.552-1.493-1.143 0-2.011.498-2.607 1.493-.51.824-.762 1.826-.762 3.012 0 1.15.252 2.137.762 2.959.615.996 1.474 1.492 2.582 1.492 1.085 0 1.937-.507 2.552-1.518.524-.839.788-1.836.788-2.985zm12.189-3.787a5.054 5.054 0 00-.896-.077c-1 0-1.773.368-2.317 1.105-.474.65-.711 1.472-.711 2.464v6.545h-2.841l.026-8.546c0-1.438-.036-2.747-.106-3.927h2.476l.104 2.387h.078c.3-.82.774-1.481 1.422-1.976a3.494 3.494 0 012.054-.669c.263 0 .5.019.711.051v2.643zm12.713 3.21c0 .496-.033.915-.104 1.257h-8.528c.034 1.232.446 2.175 1.238 2.825.718.58 1.648.872 2.789.872 1.263 0 2.415-.196 3.451-.59l.445 1.924c-1.211.515-2.64.77-4.289.77-1.984 0-3.542-.569-4.675-1.706-1.131-1.138-1.697-2.665-1.697-4.581 0-1.881.526-3.448 1.581-4.697 1.104-1.334 2.596-2 4.473-2 1.844 0 3.24.666 4.188 2 .751 1.06 1.128 2.37 1.128 3.926zm-2.71-.72c.018-.82-.167-1.53-.552-2.13-.492-.77-1.248-1.155-2.266-1.155-.929 0-1.685.375-2.262 1.13-.474.598-.755 1.317-.842 2.155h5.922zM48.524 5.876c0 1.53-.47 2.682-1.41 3.455-.871.714-2.109 1.072-3.711 1.072a17.64 17.64 0 01-2.044-.102v-8.36a15.46 15.46 0 012.406-.177c1.527 0 2.678.324 3.453.971.87.732 1.306 1.779 1.306 3.14zm-1.474.038c0-.992-.269-1.753-.807-2.283-.54-.53-1.326-.794-2.362-.794-.44 0-.815.028-1.125.088V9.28c.172.026.486.037.944.037 1.07 0 1.894-.29 2.476-.87.581-.58.874-1.424.874-2.534zm9.286 1.298c0 .943-.276 1.715-.828 2.32-.579.623-1.346.934-2.303.934-.922 0-1.657-.297-2.205-.895-.547-.597-.82-1.35-.82-2.257 0-.95.281-1.728.846-2.332.566-.605 1.326-.908 2.283-.908.923 0 1.664.298 2.226.895.533.58.8 1.328.8 2.243zm-1.45.045c0-.566-.125-1.05-.374-1.455-.294-.489-.71-.733-1.254-.733-.56 0-.988.244-1.28.733-.252.404-.376.897-.376 1.48 0 .565.126 1.05.375 1.454.303.489.724.733 1.268.733.534 0 .952-.248 1.254-.746.258-.412.387-.901.387-1.466zM66.81 4.199l-1.966 6.128h-1.28l-.815-2.661a19.533 19.533 0 01-.505-1.98h-.026a13.98 13.98 0 01-.505 1.98l-.865 2.661h-1.295L57.703 4.2h1.437l.71 2.913c.172.69.314 1.346.427 1.967h.026c.104-.512.276-1.165.518-1.954l.892-2.925h1.139l.855 2.863c.206.698.374 1.37.503 2.017h.04c.094-.63.237-1.302.426-2.017l.763-2.863h1.372V4.2zm7.245 6.128h-1.398v-3.51c0-1.081-.421-1.622-1.266-1.622-.415 0-.75.148-1.01.446a1.559 1.559 0 00-.388 1.05v3.635h-1.397V5.95c0-.538-.017-1.122-.05-1.754h1.227l.066.958h.038a2.01 2.01 0 01.724-.74 2.407 2.407 0 011.267-.344c.587 0 1.075.185 1.463.555.482.454.724 1.131.724 2.03v3.672zm3.853 0h-1.396v-8.94h1.396v8.94zm8.227-3.115c0 .943-.276 1.715-.829 2.32-.578.623-1.346.934-2.302.934-.924 0-1.659-.297-2.206-.895-.546-.597-.82-1.35-.82-2.257 0-.95.282-1.728.847-2.332.566-.605 1.325-.908 2.281-.908.925 0 1.665.298 2.227.895.534.58.802 1.328.802 2.243zm-1.451.045c0-.566-.126-1.05-.375-1.455-.292-.489-.71-.733-1.252-.733-.563 0-.99.244-1.281.733-.25.404-.375.897-.375 1.48 0 .565.126 1.05.375 1.454.303.489.724.733 1.268.733.533 0 .95-.248 1.252-.746.26-.412.388-.901.388-1.466zm8.213 3.07h-1.255l-.103-.706h-.04c-.428.563-1.04.845-1.835.845-.594 0-1.073-.186-1.435-.555-.328-.335-.492-.753-.492-1.248 0-.749.32-1.32.964-1.715.643-.395 1.547-.588 2.71-.58v-.114c0-.807-.434-1.21-1.305-1.21-.62 0-1.166.152-1.638.454l-.284-.895c.584-.352 1.305-.529 2.156-.529 1.642 0 2.466.845 2.466 2.535v2.257c0 .612.031 1.1.091 1.461zm-1.45-2.106v-.945c-1.542-.026-2.313.386-2.313 1.235 0 .32.088.559.269.719.18.16.409.24.682.24.307 0 .594-.096.855-.284a1.159 1.159 0 00.507-.965zm9.39 2.106h-1.24l-.065-.984h-.039c-.396.749-1.07 1.123-2.018 1.123-.758 0-1.388-.29-1.888-.87-.5-.58-.75-1.332-.75-2.256 0-.992.27-1.796.815-2.41.526-.571 1.172-.857 1.94-.857.844 0 1.434.277 1.77.832h.027V1.387h1.399v7.29c0 .596.016 1.146.049 1.65zm-1.448-2.584V6.72c0-.177-.013-.32-.038-.43a1.545 1.545 0 00-.506-.825 1.394 1.394 0 00-.934-.334c-.522 0-.93.202-1.23.606-.297.404-.448.92-.448 1.551 0 .606.143 1.097.43 1.476.302.403.71.604 1.22.604.46 0 .826-.168 1.105-.504a1.65 1.65 0 00.401-1.122zm13.399-.531c0 .943-.276 1.715-.828 2.32-.579.623-1.344.934-2.303.934-.921 0-1.656-.297-2.205-.895-.547-.597-.82-1.35-.82-2.257 0-.95.281-1.728.846-2.332.566-.605 1.326-.908 2.284-.908.922 0 1.664.298 2.224.895.534.58.802 1.328.802 2.243zm-1.448.045c0-.566-.126-1.05-.375-1.455-.295-.489-.711-.733-1.255-.733-.56 0-.986.244-1.281.733-.251.404-.375.897-.375 1.48 0 .565.126 1.05.375 1.454.303.489.724.733 1.268.733.533 0 .953-.248 1.255-.746.257-.412.388-.901.388-1.466zm8.961 3.07h-1.396v-3.51c0-1.081-.421-1.622-1.268-1.622-.415 0-.749.148-1.008.446a1.55 1.55 0 00-.388 1.05v3.635h-1.399V5.95c0-.538-.016-1.122-.049-1.754h1.227l.065.958h.039c.164-.297.406-.543.724-.74a2.41 2.41 0 011.268-.344c.585 0 1.073.185 1.461.555.484.454.724 1.131.724 2.03v3.672zm9.404-5.107h-1.539v2.976c0 .757.274 1.135.815 1.135.251 0 .459-.02.623-.063l.036 1.033c-.276.101-.639.152-1.086.152-.552 0-.981-.164-1.292-.491-.312-.328-.466-.879-.466-1.652V5.22h-.919V4.198h.919V3.076l1.369-.403v1.525h1.539v1.021h.001zm7.397 5.107h-1.398V6.843c0-1.098-.422-1.648-1.266-1.648-.648 0-1.09.318-1.333.955a1.684 1.684 0 00-.065.49v3.686h-1.396V1.387h1.396V5.08h.026c.44-.672 1.071-1.007 1.888-1.007.579 0 1.058.184 1.438.555.473.461.71 1.148.71 2.055v3.644zm7.631-3.354c0 .245-.019.45-.052.618h-4.191c.019.605.219 1.067.607 1.387.355.286.812.429 1.372.429a4.74 4.74 0 001.695-.29l.218.946c-.596.252-1.297.378-2.109.378-.973 0-1.74-.279-2.295-.838-.557-.559-.833-1.31-.833-2.25 0-.925.257-1.694.776-2.308.541-.655 1.273-.983 2.197-.983.904 0 1.591.328 2.055.983.375.52.56 1.164.56 1.928zm-1.333-.352c.01-.404-.082-.753-.271-1.047-.243-.378-.612-.568-1.112-.568-.456 0-.828.185-1.112.555a2.038 2.038 0 00-.415 1.06h2.91z" fill="#fff"/></svg>