<svg width="48" height="48" fill="none" xmlns="http://www.w3.org/2000/svg"><path d="M0 24C0 10.745 10.745 0 24 0s24 10.745 24 24-10.745 24-24 24S0 37.255 0 24z" fill="#0077B5"/><path d="M16.96 36.22h-5.438V19.88h5.439v16.34zm13.353-16.728c3.58 0 6.262 2.336 6.262 7.356v9.37h-5.439v-8.743c0-2.196-.787-3.695-2.755-3.695-1.503 0-2.398 1.01-2.791 1.987-.144.35-.18.837-.18 1.325v9.126h-5.439c0-.076.072-14.813 0-16.342h5.44v2.315c.722-1.112 2.015-2.699 4.902-2.699zM14.277 12c1.86 0 3.007 1.22 3.042 2.822 0 1.57-1.181 2.826-3.078 2.826h-.034c-1.826 0-3.007-1.257-3.007-2.826C11.2 13.22 12.417 12 14.277 12z" fill="#fff"/></svg>