<?xml version="1.0" encoding="utf-8"?><svg viewBox="0 0 24 23" xmlns="http://www.w3.org/2000/svg" xmlns:xlink="http://www.w3.org/1999/xlink"><style>:root>svg{display:none}:root>svg:target{display:block}</style><svg viewBox="0 0 18 18" id="chevron-down" xmlns="http://www.w3.org/2000/svg"><path d="M9.473 11.382a.75.75 0 0 1-1.003-.052l-3.6-3.6-.052-.057a.75.75 0 0 1 1.055-1.055l.057.052L9 9.74l3.07-3.07a.75.75 0 1 1 1.06 1.06l-3.6 3.6-.057.052Z"/></svg><svg viewBox="0 0 20 20" id="chevron-right" xmlns="http://www.w3.org/2000/svg"><path d="M12.582 9.526a.75.75 0 0 1-.052 1.004l-4 4-.056.052a.75.75 0 0 1-1.056-1.056l.052-.056L10.94 10 7.47 6.53a.75.75 0 1 1 1.06-1.06l4 4 .052.056Z"/></svg><svg viewBox="0 0 24 23" id="star" xmlns="http://www.w3.org/2000/svg"><path d="m12 .5 3.88 6.66 7.533 1.632-5.136 5.748.776 7.668L12 19.1l-7.053 3.108.776-7.668L.587 8.791 8.121 7.16 12 .5Z"/></svg></svg>